<svg width="512" height="512" xmlns="http://www.w3.org/2000/svg">

 <g>
  <title>background</title>
  <rect fill="none" id="canvas_background" height="402" width="582" y="-1" x="-1"/>
 </g>
 <g>
  <title>Layer 1</title>
  <path id="svg_2" d="m430.100006,192l-348.200005,0c-17.700005,0 -18.600002,9.199997 -17.599998,20.5l13,183c0.899994,11.200012 3.5,20.5 21.099998,20.5l316.200005,0c18,0 20.100006,-9.200012 21.100006,-20.5l12.100006,-185.300003c0.899994,-11.199997 -0.000031,-18.199997 -17.700012,-18.199997z"/>
  <path id="svg_4" d="m426.200012,143.300003c-0.5,-12.400009 -4.5,-15.300003 -15.100006,-15.300003c0,0 -121.399994,0 -143.199982,0c-21.800003,0 -24.400009,0.300003 -40.900009,-17.400002c-13.700012,-14.799995 -8.300018,-14.599998 -36.600021,-14.599998c-22.600006,0 -75.300003,0 -75.300003,0c-17.400002,0 -23.599998,-1.5 -25.200005,16.599998c-1.5,16.700005 -5,57.200005 -5.5,63.400002l343.400002,0l-1.599976,-32.699997z"/>
 </g>
</svg>